<?xml version="1.0" encoding="utf-8"?>
<!-- Generator: Adobe Illustrator 21.0.0, SVG Export Plug-In . SVG Version: 6.00 Build 0)  -->
<svg version="1.1" id="Layer_1" xmlns="http://www.w3.org/2000/svg" xmlns:xlink="http://www.w3.org/1999/xlink" x="0px" y="0px"
	 width="23.4px" height="27.8px" viewBox="0 0 23.4 27.8" style="enable-background:new 0 0 23.4 27.8;" xml:space="preserve">
<style type="text/css">
	.st0{fill:#3DD0EE;}
	.st1{opacity:0.5;fill:#3DD0EE;}
</style>
<path class="st0" d="M15.5,0.6c0,0.1,0,0.2,0,0.4c0,2.1-1.7,3.8-3.8,3.8S7.9,3.1,7.9,1c0-0.1,0-0.2,0-0.4C3.3,2.2,0,6.6,0,11.7
	c0,6.5,5.2,11.7,11.7,11.7c6.5,0,11.7-5.2,11.7-11.7C23.4,6.6,20.1,2.2,15.5,0.6z M11.7,17.5C8.5,17.5,6,15,6,11.8s2.5-5.6,5.6-5.6
	s5.6,2.5,5.6,5.6S14.8,17.5,11.7,17.5z M11.7,4.2c1.8,0,3.2-1.5,3.2-3.2c0-0.2,0-0.4-0.1-0.5c-1-0.3-2.1-0.4-3.2-0.4
	S9.5,0.2,8.5,0.4c0,0.2-0.1,0.4-0.1,0.5C8.4,2.8,9.9,4.2,11.7,4.2z"/>
<path class="st1" d="M18.2,24.2c0.6,0.8,1.1,1.6,1.5,2.6c0.2,0.5-0.2,1.1-0.7,1.1l-14.5,0c-0.5,0-0.9-0.6-0.7-1.1
	c0.4-1,0.9-1.8,1.6-2.6l0,0c4.2,1.1,8.5,1.1,12.7,0L18.2,24.2z"/>
<circle class="st1" cx="11.7" cy="11.8" r="2.1"/>
</svg>
