<?xml version="1.0" encoding="utf-8"?>
<!-- Generator: Adobe Illustrator 21.0.0, SVG Export Plug-In . SVG Version: 6.00 Build 0)  -->
<svg version="1.1" id="Layer_1" xmlns="http://www.w3.org/2000/svg" xmlns:xlink="http://www.w3.org/1999/xlink" x="0px" y="0px"
	 width="22px" height="22px" viewBox="0 0 22 22" style="enable-background:new 0 0 22 22;" xml:space="preserve">
<style type="text/css">
	.st0{fill:#EA524E;}
	.st1{fill:#FFFFFF;}
</style>
<g>
	<path class="st0" d="M11,21C5.5,21,1,16.5,1,11S5.5,1,11,1s10,4.5,10,10S16.5,21,11,21z"/>
	<path class="st1" d="M11,2c5,0,9,4,9,9c0,5-4,9-9,9s-9-4-9-9C2,6,6,2,11,2 M11,0C4.9,0,0,4.9,0,11c0,6.1,4.9,11,11,11s11-4.9,11-11
		C22,4.9,17.1,0,11,0L11,0z"/>
</g>
<path class="st1" d="M13.6,14.6L11,12l-2.6,2.6c-0.3,0.3-0.8,0.3-1,0c-0.3-0.3-0.3-0.8,0-1L10,11L7.4,8.4c-0.3-0.3-0.3-0.8,0-1
	s0.8-0.3,1,0L11,10l2.6-2.6c0.3-0.3,0.8-0.3,1,0c0.3,0.3,0.3,0.8,0,1L12,11l2.6,2.6c0.3,0.3,0.3,0.8,0,1
	C14.4,14.9,13.9,14.9,13.6,14.6z"/>
</svg>
