<?xml version="1.0" encoding="utf-8"?>
<!-- Generator: Adobe Illustrator 21.0.0, SVG Export Plug-In . SVG Version: 6.00 Build 0)  -->
<svg version="1.1" id="Layer_1" xmlns="http://www.w3.org/2000/svg" xmlns:xlink="http://www.w3.org/1999/xlink" x="0px" y="0px"
	 width="20px" height="20px" viewBox="0 0 20 20" style="enable-background:new 0 0 20 20;" xml:space="preserve">
<style type="text/css">
	.st0{fill:#fff;}
	.st1{opacity:0.5;fill:#999999;}
</style>
<g>
	<g>
		<path class="st0" d="M17.9,7.5c-0.1-0.4-0.4-0.9-0.6-1.3C18,5.1,17.9,3.8,17,3l0,0c-0.5-0.5-1.1-0.7-1.8-0.7c-0.5,0-1,0.1-1.4,0.4
			c-0.4-0.2-0.9-0.4-1.3-0.5c-0.3-1.2-1.3-2-2.4-2H9.9C8.7,0,7.7,0.8,7.4,2C6.9,2.2,6.5,2.4,6.1,2.6c-0.5-0.2-1-0.4-1.4-0.4
			c-0.7,0-1.3,0.3-1.8,0.7l0,0C2,3.7,1.9,5,2.5,6.1C2.3,6.5,2.1,7,2,7.5C0.8,7.9,0,8.9,0,10V10c0,1.1,0.8,2.1,2,2.4
			c0.2,0.5,0.3,1,0.5,1.4C1.9,15,2,16.3,2.8,17.1l0.1,0c0.4,0.4,1,0.7,1.7,0.7c0.5,0,1-0.1,1.5-0.4c0.5,0.2,0.9,0.4,1.4,0.6
			c0.4,1.2,1.4,2,2.5,2H10c1.1,0,2.1-0.8,2.4-2c0.5-0.1,1-0.3,1.4-0.6c0.4,0.3,0.9,0.4,1.4,0.4c0.7,0,1.3-0.3,1.7-0.7l0-0.1
			c0.9-0.9,1-2.2,0.4-3.3c0.2-0.4,0.4-0.8,0.5-1.2c1.2-0.3,2.1-1.3,2.1-2.5V10C20,8.8,19.1,7.7,17.9,7.5z M4.4,11.5c0,0-0.1,0-0.1,0
			c-0.2,0-0.4-0.1-0.5-0.4c-0.1-0.3-0.2-0.7-0.2-1.1c0-0.3,0.1-0.5,0.4-0.6c0.3,0,0.5,0.2,0.6,0.4c0,0.3,0.1,0.6,0.2,0.9
			C4.9,11.1,4.7,11.4,4.4,11.5z M9.8,16.4C9.7,16.4,9.7,16.4,9.8,16.4c-2.1-0.4-4-1.6-5.1-3.4c-0.1-0.2-0.1-0.5,0.2-0.7
			c0.2-0.1,0.5-0.1,0.7,0.2c1,1.5,2.6,2.6,4.3,2.9c0.3,0,0.5,0.3,0.4,0.6C10.2,16.2,10,16.4,9.8,16.4z M10,14c-2.2,0-4-1.8-4-4
			c0-2.2,1.8-4,4-4s4,1.8,4,4C14,12.2,12.2,14,10,14z"/>
	</g>
</g>
<circle class="st1" cx="10" cy="10" r="2"/>
</svg>
